<?xml version="1.0" encoding="utf-8" standalone="no"?>
<!DOCTYPE svg PUBLIC "-//W3C//DTD SVG 1.1//EN"
  "http://www.w3.org/Graphics/SVG/1.1/DTD/svg11.dtd">
<!-- Created with matplotlib (http://matplotlib.org/) -->
<svg height="288pt" version="1.1" viewBox="0 0 432 288" width="432pt" xmlns="http://www.w3.org/2000/svg" xmlns:xlink="http://www.w3.org/1999/xlink">
 <defs>
  <style type="text/css">
*{stroke-linecap:butt;stroke-linejoin:round;stroke-miterlimit:100000;}
  </style>
 </defs>
 <g id="figure_1">
  <g id="patch_1">
   <path d="M 0 288 
L 432 288 
L 432 0 
L 0 0 
z
" style="fill:#ffffff;"/>
  </g>
  <g id="axes_1">
   <g id="patch_2">
    <path d="M 54 252 
L 321.84 252 
L 321.84 28.8 
L 54 28.8 
z
" style="fill:#ffffff;"/>
   </g>
   <g id="PathCollection_1">
    <path clip-path="url(#pa8f7904747)" d="M 97.676429 140.4 
L 88.29628 129.103953 
L 120.96 107.32814 
L 187.92 102.798512 
L 208.040476 117.530119 
L 199.709932 142.364989 
L 187.92 145.312472 
L 120.96 148.783532 
z
" style="fill:#15eaff;"/>
   </g>
   <g id="PathCollection_2">
    <path clip-path="url(#pa8f7904747)" d="M 71.699548 168.3 
L 54 162.467586 
L 54 140.4 
L 54 134.82 
L 54 129.24 
L 54 129.099548 
L 120.96 77.753636 
L 187.92 70.606244 
L 240.882208 102.254069 
L 254.88 112.819849 
L 278.813163 135.223291 
L 275.201053 154.946842 
L 254.88 163.293322 
L 223.119965 171.23333 
L 187.92 176.767105 
L 120.96 178.272151 
z
M 120.96 148.783532 
L 187.92 145.312472 
L 199.709932 142.364989 
L 208.040476 117.530119 
L 187.92 102.798512 
L 120.96 107.32814 
L 88.29628 129.103953 
L 97.676429 140.4 
z
" style="fill:#40bfff;"/>
   </g>
   <g id="PathCollection_3">
    <path clip-path="url(#pa8f7904747)" d="M 54 196.2 
L 54 168.3 
L 54 162.467586 
L 71.699548 168.3 
L 120.96 178.272151 
L 187.92 176.767105 
L 223.119965 171.23333 
L 254.88 163.293322 
L 275.201053 154.946842 
L 278.813163 135.223291 
L 254.88 112.819849 
L 240.882208 102.254069 
L 187.92 70.606244 
L 120.96 77.753636 
L 54 129.099548 
L 54 123.66 
L 120.96 67.86 
L 187.92 56.7 
L 254.88 73.44 
L 266.712987 80.342576 
L 321.84 127.894976 
L 321.84 129.24 
L 321.84 145.98 
L 321.84 162.72 
L 321.84 177.158512 
L 317.359691 179.086641 
L 254.88 194.706564 
L 245.674048 196.2 
L 187.92 205.629615 
L 120.96 206.594237 
L 54 197.642586 
z
" style="fill:#6a95ff;"/>
   </g>
   <g id="PathCollection_4">
    <path clip-path="url(#pa8f7904747)" d="M 54 224.1 
L 54 197.642586 
L 120.96 206.594237 
L 187.92 205.629615 
L 245.674048 196.2 
L 254.88 194.706564 
L 317.359691 179.086641 
L 321.84 177.158512 
L 321.84 179.46 
L 321.84 196.2 
L 321.84 208.000676 
L 262.957362 224.1 
L 254.88 225.912196 
L 187.92 233.980195 
L 120.96 234.692699 
L 54 228.152408 
z
" style="fill:#956aff;"/>
    <path clip-path="url(#pa8f7904747)" d="M 266.712987 80.342576 
L 321.84 112.5 
L 321.84 127.894976 
z
" style="fill:#956aff;"/>
   </g>
   <g id="PathCollection_5">
    <path clip-path="url(#pa8f7904747)" d="M 120.96 234.692699 
L 187.92 233.980195 
L 254.88 225.912196 
L 262.957362 224.1 
L 321.84 208.000676 
L 321.84 224.1 
L 321.84 242.605187 
L 275.873898 252 
L 254.88 252 
L 187.92 252 
L 120.96 252 
L 54 252 
L 54 228.152408 
z
" style="fill:#c03fff;"/>
   </g>
   <g id="PathCollection_6">
    <path clip-path="url(#pa8f7904747)" d="M 321.84 242.605187 
L 321.84 252 
L 275.873898 252 
z
" style="fill:#ea15ff;"/>
   </g>
   <g id="LineCollection_1">
    <path clip-path="url(#pa8f7904747)" d="M 177.215663 103.522626 
L 120.96 107.32814 
L 88.29628 129.103953 
L 97.676429 140.4 
L 120.96 148.783532 
L 187.92 145.312472 
L 199.709932 142.364989 
L 208.040476 117.530119 
L 197.170022 109.5711 
" style="fill:none;stroke:#0000ff;"/>
   </g>
   <g id="LineCollection_2">
    <path clip-path="url(#pa8f7904747)" d="M 54 162.467586 
L 71.699548 168.3 
L 120.96 178.272151 
L 187.92 176.767105 
L 223.119965 171.23333 
L 254.88 163.293322 
L 263.420705 159.785392 
" style="fill:none;stroke:#0040df;"/>
    <path clip-path="url(#pa8f7904747)" d="M 277.968098 139.837684 
L 278.813163 135.223291 
L 254.88 112.819849 
L 240.882208 102.254069 
L 187.92 70.606244 
L 120.96 77.753636 
L 54 129.099548 
" style="fill:none;stroke:#0040df;"/>
   </g>
   <g id="LineCollection_3">
    <path clip-path="url(#pa8f7904747)" d="M 54 197.642586 
L 120.96 206.594237 
L 187.92 205.629615 
L 233.378491 198.207519 
" style="fill:none;stroke:#0080bf;"/>
    <path clip-path="url(#pa8f7904747)" d="M 257.936317 193.942484 
L 317.359691 179.086641 
L 321.84 177.158512 
" style="fill:none;stroke:#0080bf;"/>
    <path clip-path="url(#pa8f7904747)" d="M 321.84 127.894976 
L 276.91881 89.146089 
" style="fill:none;stroke:#0080bf;"/>
   </g>
   <g id="LineCollection_4">
    <path clip-path="url(#pa8f7904747)" d="M 54 228.152408 
L 120.96 234.692699 
L 187.92 233.980195 
L 242.537208 227.399377 
" style="fill:none;stroke:#00c09f;"/>
    <path clip-path="url(#pa8f7904747)" d="M 267.054072 222.979903 
L 321.84 208.000676 
" style="fill:none;stroke:#00c09f;"/>
   </g>
   <g id="LineCollection_5">
    <path clip-path="url(#pa8f7904747)" d="M 275.873898 252 
L 309.602506 245.106356 
" style="fill:none;stroke:#00ff80;"/>
   </g>
   <g id="line2d_1">
    <path clip-path="url(#pa8f7904747)" d="M 54 123.66 
L 120.96 67.86 
L 187.92 56.7 
L 254.88 73.44 
L 321.84 112.5 
" style="fill:none;stroke:#0000ff;stroke-linecap:square;stroke-width:2.0;"/>
   </g>
   <g id="patch_3">
    <path d="M 321.84 252 
L 321.84 28.8 
" style="fill:none;stroke:#000000;stroke-linecap:square;stroke-linejoin:miter;"/>
   </g>
   <g id="patch_4">
    <path d="M 54 252 
L 321.84 252 
" style="fill:none;stroke:#000000;stroke-linecap:square;stroke-linejoin:miter;"/>
   </g>
   <g id="patch_5">
    <path d="M 54 252 
L 54 28.8 
" style="fill:none;stroke:#000000;stroke-linecap:square;stroke-linejoin:miter;"/>
   </g>
   <g id="patch_6">
    <path d="M 54 28.8 
L 321.84 28.8 
" style="fill:none;stroke:#000000;stroke-linecap:square;stroke-linejoin:miter;"/>
   </g>
   <g id="matplotlib.axis_1">
    <g id="xtick_1">
     <g id="line2d_2">
      <path clip-path="url(#pa8f7904747)" d="M 54 252 
L 54 28.8 
" style="fill:none;stroke:#000000;stroke-dasharray:1.000000,3.000000;stroke-dashoffset:0.0;stroke-width:0.5;"/>
     </g>
     <g id="line2d_3">
      <defs>
       <path d="M 0 0 
L 0 -4 
" id="m9a68724082" style="stroke:#000000;stroke-width:0.5;"/>
      </defs>
      <g>
       <use style="stroke:#000000;stroke-width:0.5;" x="54.0" xlink:href="#m9a68724082" y="252.0"/>
      </g>
     </g>
     <g id="line2d_4">
      <defs>
       <path d="M 0 0 
L 0 4 
" id="m2336c0d0ae" style="stroke:#000000;stroke-width:0.5;"/>
      </defs>
      <g>
       <use style="stroke:#000000;stroke-width:0.5;" x="54.0" xlink:href="#m2336c0d0ae" y="28.8"/>
      </g>
     </g>
     <g id="text_1">
      <!-- 10 -->
      <defs>
       <path d="M 31.78125 66.40625 
Q 24.171875 66.40625 20.328125 58.90625 
Q 16.5 51.421875 16.5 36.375 
Q 16.5 21.390625 20.328125 13.890625 
Q 24.171875 6.390625 31.78125 6.390625 
Q 39.453125 6.390625 43.28125 13.890625 
Q 47.125 21.390625 47.125 36.375 
Q 47.125 51.421875 43.28125 58.90625 
Q 39.453125 66.40625 31.78125 66.40625 
M 31.78125 74.21875 
Q 44.046875 74.21875 50.515625 64.515625 
Q 56.984375 54.828125 56.984375 36.375 
Q 56.984375 17.96875 50.515625 8.265625 
Q 44.046875 -1.421875 31.78125 -1.421875 
Q 19.53125 -1.421875 13.0625 8.265625 
Q 6.59375 17.96875 6.59375 36.375 
Q 6.59375 54.828125 13.0625 64.515625 
Q 19.53125 74.21875 31.78125 74.21875 
" id="DejaVuSans-30"/>
       <path d="M 12.40625 8.296875 
L 28.515625 8.296875 
L 28.515625 63.921875 
L 10.984375 60.40625 
L 10.984375 69.390625 
L 28.421875 72.90625 
L 38.28125 72.90625 
L 38.28125 8.296875 
L 54.390625 8.296875 
L 54.390625 0 
L 12.40625 0 
z
" id="DejaVuSans-31"/>
      </defs>
      <g transform="translate(47.6375 263.5984375)scale(0.1 -0.1)">
       <use xlink:href="#DejaVuSans-31"/>
       <use x="63.623046875" xlink:href="#DejaVuSans-30"/>
      </g>
     </g>
    </g>
    <g id="xtick_2">
     <g id="line2d_5">
      <path clip-path="url(#pa8f7904747)" d="M 87.48 252 
L 87.48 28.8 
" style="fill:none;stroke:#000000;stroke-dasharray:1.000000,3.000000;stroke-dashoffset:0.0;stroke-width:0.5;"/>
     </g>
     <g id="line2d_6">
      <g>
       <use style="stroke:#000000;stroke-width:0.5;" x="87.48" xlink:href="#m9a68724082" y="252.0"/>
      </g>
     </g>
     <g id="line2d_7">
      <g>
       <use style="stroke:#000000;stroke-width:0.5;" x="87.48" xlink:href="#m2336c0d0ae" y="28.8"/>
      </g>
     </g>
     <g id="text_2">
      <!-- 15 -->
      <defs>
       <path d="M 10.796875 72.90625 
L 49.515625 72.90625 
L 49.515625 64.59375 
L 19.828125 64.59375 
L 19.828125 46.734375 
Q 21.96875 47.46875 24.109375 47.828125 
Q 26.265625 48.1875 28.421875 48.1875 
Q 40.625 48.1875 47.75 41.5 
Q 54.890625 34.8125 54.890625 23.390625 
Q 54.890625 11.625 47.5625 5.09375 
Q 40.234375 -1.421875 26.90625 -1.421875 
Q 22.3125 -1.421875 17.546875 -0.640625 
Q 12.796875 0.140625 7.71875 1.703125 
L 7.71875 11.625 
Q 12.109375 9.234375 16.796875 8.0625 
Q 21.484375 6.890625 26.703125 6.890625 
Q 35.15625 6.890625 40.078125 11.328125 
Q 45.015625 15.765625 45.015625 23.390625 
Q 45.015625 31 40.078125 35.4375 
Q 35.15625 39.890625 26.703125 39.890625 
Q 22.75 39.890625 18.8125 39.015625 
Q 14.890625 38.140625 10.796875 36.28125 
z
" id="DejaVuSans-35"/>
      </defs>
      <g transform="translate(81.1175 263.5984375)scale(0.1 -0.1)">
       <use xlink:href="#DejaVuSans-31"/>
       <use x="63.623046875" xlink:href="#DejaVuSans-35"/>
      </g>
     </g>
    </g>
    <g id="xtick_3">
     <g id="line2d_8">
      <path clip-path="url(#pa8f7904747)" d="M 120.96 252 
L 120.96 28.8 
" style="fill:none;stroke:#000000;stroke-dasharray:1.000000,3.000000;stroke-dashoffset:0.0;stroke-width:0.5;"/>
     </g>
     <g id="line2d_9">
      <g>
       <use style="stroke:#000000;stroke-width:0.5;" x="120.96" xlink:href="#m9a68724082" y="252.0"/>
      </g>
     </g>
     <g id="line2d_10">
      <g>
       <use style="stroke:#000000;stroke-width:0.5;" x="120.96" xlink:href="#m2336c0d0ae" y="28.8"/>
      </g>
     </g>
     <g id="text_3">
      <!-- 20 -->
      <defs>
       <path d="M 19.1875 8.296875 
L 53.609375 8.296875 
L 53.609375 0 
L 7.328125 0 
L 7.328125 8.296875 
Q 12.9375 14.109375 22.625 23.890625 
Q 32.328125 33.6875 34.8125 36.53125 
Q 39.546875 41.84375 41.421875 45.53125 
Q 43.3125 49.21875 43.3125 52.78125 
Q 43.3125 58.59375 39.234375 62.25 
Q 35.15625 65.921875 28.609375 65.921875 
Q 23.96875 65.921875 18.8125 64.3125 
Q 13.671875 62.703125 7.8125 59.421875 
L 7.8125 69.390625 
Q 13.765625 71.78125 18.9375 73 
Q 24.125 74.21875 28.421875 74.21875 
Q 39.75 74.21875 46.484375 68.546875 
Q 53.21875 62.890625 53.21875 53.421875 
Q 53.21875 48.921875 51.53125 44.890625 
Q 49.859375 40.875 45.40625 35.40625 
Q 44.1875 33.984375 37.640625 27.21875 
Q 31.109375 20.453125 19.1875 8.296875 
" id="DejaVuSans-32"/>
      </defs>
      <g transform="translate(114.5975 263.5984375)scale(0.1 -0.1)">
       <use xlink:href="#DejaVuSans-32"/>
       <use x="63.623046875" xlink:href="#DejaVuSans-30"/>
      </g>
     </g>
    </g>
    <g id="xtick_4">
     <g id="line2d_11">
      <path clip-path="url(#pa8f7904747)" d="M 154.44 252 
L 154.44 28.8 
" style="fill:none;stroke:#000000;stroke-dasharray:1.000000,3.000000;stroke-dashoffset:0.0;stroke-width:0.5;"/>
     </g>
     <g id="line2d_12">
      <g>
       <use style="stroke:#000000;stroke-width:0.5;" x="154.44" xlink:href="#m9a68724082" y="252.0"/>
      </g>
     </g>
     <g id="line2d_13">
      <g>
       <use style="stroke:#000000;stroke-width:0.5;" x="154.44" xlink:href="#m2336c0d0ae" y="28.8"/>
      </g>
     </g>
     <g id="text_4">
      <!-- 25 -->
      <g transform="translate(148.0775 263.5984375)scale(0.1 -0.1)">
       <use xlink:href="#DejaVuSans-32"/>
       <use x="63.623046875" xlink:href="#DejaVuSans-35"/>
      </g>
     </g>
    </g>
    <g id="xtick_5">
     <g id="line2d_14">
      <path clip-path="url(#pa8f7904747)" d="M 187.92 252 
L 187.92 28.8 
" style="fill:none;stroke:#000000;stroke-dasharray:1.000000,3.000000;stroke-dashoffset:0.0;stroke-width:0.5;"/>
     </g>
     <g id="line2d_15">
      <g>
       <use style="stroke:#000000;stroke-width:0.5;" x="187.92" xlink:href="#m9a68724082" y="252.0"/>
      </g>
     </g>
     <g id="line2d_16">
      <g>
       <use style="stroke:#000000;stroke-width:0.5;" x="187.92" xlink:href="#m2336c0d0ae" y="28.8"/>
      </g>
     </g>
     <g id="text_5">
      <!-- 30 -->
      <defs>
       <path d="M 40.578125 39.3125 
Q 47.65625 37.796875 51.625 33 
Q 55.609375 28.21875 55.609375 21.1875 
Q 55.609375 10.40625 48.1875 4.484375 
Q 40.765625 -1.421875 27.09375 -1.421875 
Q 22.515625 -1.421875 17.65625 -0.515625 
Q 12.796875 0.390625 7.625 2.203125 
L 7.625 11.71875 
Q 11.71875 9.328125 16.59375 8.109375 
Q 21.484375 6.890625 26.8125 6.890625 
Q 36.078125 6.890625 40.9375 10.546875 
Q 45.796875 14.203125 45.796875 21.1875 
Q 45.796875 27.640625 41.28125 31.265625 
Q 36.765625 34.90625 28.71875 34.90625 
L 20.21875 34.90625 
L 20.21875 43.015625 
L 29.109375 43.015625 
Q 36.375 43.015625 40.234375 45.921875 
Q 44.09375 48.828125 44.09375 54.296875 
Q 44.09375 59.90625 40.109375 62.90625 
Q 36.140625 65.921875 28.71875 65.921875 
Q 24.65625 65.921875 20.015625 65.03125 
Q 15.375 64.15625 9.8125 62.3125 
L 9.8125 71.09375 
Q 15.4375 72.65625 20.34375 73.4375 
Q 25.25 74.21875 29.59375 74.21875 
Q 40.828125 74.21875 47.359375 69.109375 
Q 53.90625 64.015625 53.90625 55.328125 
Q 53.90625 49.265625 50.4375 45.09375 
Q 46.96875 40.921875 40.578125 39.3125 
" id="DejaVuSans-33"/>
      </defs>
      <g transform="translate(181.5575 263.5984375)scale(0.1 -0.1)">
       <use xlink:href="#DejaVuSans-33"/>
       <use x="63.623046875" xlink:href="#DejaVuSans-30"/>
      </g>
     </g>
    </g>
    <g id="xtick_6">
     <g id="line2d_17">
      <path clip-path="url(#pa8f7904747)" d="M 221.4 252 
L 221.4 28.8 
" style="fill:none;stroke:#000000;stroke-dasharray:1.000000,3.000000;stroke-dashoffset:0.0;stroke-width:0.5;"/>
     </g>
     <g id="line2d_18">
      <g>
       <use style="stroke:#000000;stroke-width:0.5;" x="221.4" xlink:href="#m9a68724082" y="252.0"/>
      </g>
     </g>
     <g id="line2d_19">
      <g>
       <use style="stroke:#000000;stroke-width:0.5;" x="221.4" xlink:href="#m2336c0d0ae" y="28.8"/>
      </g>
     </g>
     <g id="text_6">
      <!-- 35 -->
      <g transform="translate(215.0375 263.5984375)scale(0.1 -0.1)">
       <use xlink:href="#DejaVuSans-33"/>
       <use x="63.623046875" xlink:href="#DejaVuSans-35"/>
      </g>
     </g>
    </g>
    <g id="xtick_7">
     <g id="line2d_20">
      <path clip-path="url(#pa8f7904747)" d="M 254.88 252 
L 254.88 28.8 
" style="fill:none;stroke:#000000;stroke-dasharray:1.000000,3.000000;stroke-dashoffset:0.0;stroke-width:0.5;"/>
     </g>
     <g id="line2d_21">
      <g>
       <use style="stroke:#000000;stroke-width:0.5;" x="254.88" xlink:href="#m9a68724082" y="252.0"/>
      </g>
     </g>
     <g id="line2d_22">
      <g>
       <use style="stroke:#000000;stroke-width:0.5;" x="254.88" xlink:href="#m2336c0d0ae" y="28.8"/>
      </g>
     </g>
     <g id="text_7">
      <!-- 40 -->
      <defs>
       <path d="M 37.796875 64.3125 
L 12.890625 25.390625 
L 37.796875 25.390625 
z
M 35.203125 72.90625 
L 47.609375 72.90625 
L 47.609375 25.390625 
L 58.015625 25.390625 
L 58.015625 17.1875 
L 47.609375 17.1875 
L 47.609375 0 
L 37.796875 0 
L 37.796875 17.1875 
L 4.890625 17.1875 
L 4.890625 26.703125 
z
" id="DejaVuSans-34"/>
      </defs>
      <g transform="translate(248.5175 263.5984375)scale(0.1 -0.1)">
       <use xlink:href="#DejaVuSans-34"/>
       <use x="63.623046875" xlink:href="#DejaVuSans-30"/>
      </g>
     </g>
    </g>
    <g id="xtick_8">
     <g id="line2d_23">
      <path clip-path="url(#pa8f7904747)" d="M 288.36 252 
L 288.36 28.8 
" style="fill:none;stroke:#000000;stroke-dasharray:1.000000,3.000000;stroke-dashoffset:0.0;stroke-width:0.5;"/>
     </g>
     <g id="line2d_24">
      <g>
       <use style="stroke:#000000;stroke-width:0.5;" x="288.36" xlink:href="#m9a68724082" y="252.0"/>
      </g>
     </g>
     <g id="line2d_25">
      <g>
       <use style="stroke:#000000;stroke-width:0.5;" x="288.36" xlink:href="#m2336c0d0ae" y="28.8"/>
      </g>
     </g>
     <g id="text_8">
      <!-- 45 -->
      <g transform="translate(281.9975 263.5984375)scale(0.1 -0.1)">
       <use xlink:href="#DejaVuSans-34"/>
       <use x="63.623046875" xlink:href="#DejaVuSans-35"/>
      </g>
     </g>
    </g>
    <g id="xtick_9">
     <g id="line2d_26">
      <path clip-path="url(#pa8f7904747)" d="M 321.84 252 
L 321.84 28.8 
" style="fill:none;stroke:#000000;stroke-dasharray:1.000000,3.000000;stroke-dashoffset:0.0;stroke-width:0.5;"/>
     </g>
     <g id="line2d_27">
      <g>
       <use style="stroke:#000000;stroke-width:0.5;" x="321.84" xlink:href="#m9a68724082" y="252.0"/>
      </g>
     </g>
     <g id="line2d_28">
      <g>
       <use style="stroke:#000000;stroke-width:0.5;" x="321.84" xlink:href="#m2336c0d0ae" y="28.8"/>
      </g>
     </g>
     <g id="text_9">
      <!-- 50 -->
      <g transform="translate(315.4775 263.5984375)scale(0.1 -0.1)">
       <use xlink:href="#DejaVuSans-35"/>
       <use x="63.623046875" xlink:href="#DejaVuSans-30"/>
      </g>
     </g>
    </g>
    <g id="text_10">
     <!-- $U/min$ -->
     <defs>
      <path d="M 7.71875 1.703125 
Q 7.71875 2.296875 7.8125 2.59375 
L 15.28125 32.421875 
Q 16.015625 35.203125 16.015625 37.3125 
Q 16.015625 41.609375 13.09375 41.609375 
Q 9.96875 41.609375 8.453125 37.859375 
Q 6.9375 34.125 5.515625 28.421875 
Q 5.515625 28.125 5.21875 27.953125 
Q 4.9375 27.78125 4.6875 27.78125 
L 3.515625 27.78125 
Q 3.171875 27.78125 2.921875 28.140625 
Q 2.6875 28.515625 2.6875 28.8125 
Q 3.765625 33.15625 4.765625 36.171875 
Q 5.765625 39.203125 7.890625 41.6875 
Q 10.015625 44.1875 13.1875 44.1875 
Q 16.9375 44.1875 19.8125 41.8125 
Q 22.703125 39.453125 22.703125 35.796875 
Q 25.6875 39.703125 29.6875 41.9375 
Q 33.6875 44.1875 38.1875 44.1875 
Q 42.921875 44.1875 46.359375 41.765625 
Q 49.8125 39.359375 49.8125 34.90625 
Q 52.875 39.265625 57 41.71875 
Q 61.140625 44.1875 66.015625 44.1875 
Q 71.1875 44.1875 74.328125 41.375 
Q 77.484375 38.578125 77.484375 33.40625 
Q 77.484375 29.296875 75.65625 23.484375 
Q 73.828125 17.671875 71.09375 10.5 
Q 69.671875 7.03125 69.671875 4.5 
Q 69.671875 1.515625 72.015625 1.515625 
Q 75.921875 1.515625 78.515625 5.703125 
Q 81.109375 9.90625 82.171875 14.703125 
Q 82.46875 15.28125 83.015625 15.28125 
L 84.1875 15.28125 
Q 84.578125 15.28125 84.84375 15.015625 
Q 85.109375 14.75 85.109375 14.40625 
Q 85.109375 14.3125 85.015625 14.109375 
Q 83.640625 8.453125 80.25 3.65625 
Q 76.859375 -1.125 71.78125 -1.125 
Q 68.265625 -1.125 65.765625 1.296875 
Q 63.28125 3.71875 63.28125 7.171875 
Q 63.28125 8.9375 64.109375 11.078125 
Q 66.9375 18.609375 68.8125 24.515625 
Q 70.703125 30.421875 70.703125 34.90625 
Q 70.703125 37.703125 69.578125 39.65625 
Q 68.453125 41.609375 65.828125 41.609375 
Q 60.359375 41.609375 56.34375 38.25 
Q 52.34375 34.90625 49.421875 29.390625 
Q 49.21875 28.421875 49.125 27.875 
L 42.671875 2.203125 
Q 42.328125 0.828125 41.125 -0.140625 
Q 39.9375 -1.125 38.484375 -1.125 
Q 37.3125 -1.125 36.40625 -0.34375 
Q 35.5 0.4375 35.5 1.703125 
Q 35.5 2.296875 35.59375 2.59375 
L 42 28.078125 
Q 43.015625 32.171875 43.015625 34.90625 
Q 43.015625 37.703125 41.859375 39.65625 
Q 40.71875 41.609375 37.984375 41.609375 
Q 34.328125 41.609375 31.25 39.984375 
Q 28.171875 38.375 25.875 35.71875 
Q 23.578125 33.0625 21.6875 29.390625 
L 14.890625 2.203125 
Q 14.546875 0.828125 13.34375 -0.140625 
Q 12.15625 -1.125 10.6875 -1.125 
Q 9.46875 -1.125 8.59375 -0.34375 
Q 7.71875 0.4375 7.71875 1.703125 
" id="Cmmi10-6d"/>
      <path d="M 7.71875 1.703125 
Q 7.71875 2.296875 7.8125 2.59375 
L 15.28125 32.421875 
Q 16.015625 35.203125 16.015625 37.3125 
Q 16.015625 41.609375 13.09375 41.609375 
Q 9.96875 41.609375 8.453125 37.859375 
Q 6.9375 34.125 5.515625 28.421875 
Q 5.515625 28.125 5.21875 27.953125 
Q 4.9375 27.78125 4.6875 27.78125 
L 3.515625 27.78125 
Q 3.171875 27.78125 2.921875 28.140625 
Q 2.6875 28.515625 2.6875 28.8125 
Q 3.765625 33.15625 4.765625 36.171875 
Q 5.765625 39.203125 7.890625 41.6875 
Q 10.015625 44.1875 13.1875 44.1875 
Q 16.9375 44.1875 19.8125 41.8125 
Q 22.703125 39.453125 22.703125 35.796875 
Q 25.6875 39.703125 29.6875 41.9375 
Q 33.6875 44.1875 38.1875 44.1875 
Q 41.75 44.1875 44.328125 42.96875 
Q 46.921875 41.75 48.359375 39.28125 
Q 49.8125 36.8125 49.8125 33.40625 
Q 49.8125 29.296875 47.96875 23.484375 
Q 46.140625 17.671875 43.40625 10.5 
Q 42 7.234375 42 4.5 
Q 42 1.515625 44.28125 1.515625 
Q 48.1875 1.515625 50.796875 5.703125 
Q 53.421875 9.90625 54.5 14.703125 
Q 54.6875 15.28125 55.328125 15.28125 
L 56.5 15.28125 
Q 56.890625 15.28125 57.15625 15.03125 
Q 57.421875 14.796875 57.421875 14.40625 
Q 57.421875 14.3125 57.328125 14.109375 
Q 55.953125 8.453125 52.5625 3.65625 
Q 49.171875 -1.125 44.09375 -1.125 
Q 40.578125 -1.125 38.078125 1.296875 
Q 35.59375 3.71875 35.59375 7.171875 
Q 35.59375 9.03125 36.375 11.078125 
Q 37.640625 14.359375 39.28125 18.890625 
Q 40.921875 23.4375 41.96875 27.578125 
Q 43.015625 31.734375 43.015625 34.90625 
Q 43.015625 37.703125 41.859375 39.65625 
Q 40.71875 41.609375 37.984375 41.609375 
Q 34.328125 41.609375 31.25 39.984375 
Q 28.171875 38.375 25.875 35.71875 
Q 23.578125 33.0625 21.6875 29.390625 
L 14.890625 2.203125 
Q 14.546875 0.828125 13.34375 -0.140625 
Q 12.15625 -1.125 10.6875 -1.125 
Q 9.46875 -1.125 8.59375 -0.34375 
Q 7.71875 0.4375 7.71875 1.703125 
" id="Cmmi10-6e"/>
      <path d="M 5.609375 -23 
Q 5.609375 -22.703125 5.71875 -22.609375 
L 40.484375 73.78125 
Q 40.671875 74.359375 41.15625 74.671875 
Q 41.65625 75 42.28125 75 
Q 43.171875 75 43.71875 74.453125 
Q 44.28125 73.921875 44.28125 73 
L 44.28125 72.609375 
L 9.515625 -23.78125 
Q 8.9375 -25 7.625 -25 
Q 6.78125 -25 6.1875 -24.40625 
Q 5.609375 -23.828125 5.609375 -23 
" id="Cmmi10-3d"/>
      <path d="M 7.8125 7.171875 
Q 7.8125 9.03125 8.59375 11.078125 
L 16.703125 32.625 
Q 18.015625 36.28125 18.015625 38.625 
Q 18.015625 41.609375 15.828125 41.609375 
Q 11.859375 41.609375 9.296875 37.53125 
Q 6.734375 33.453125 5.515625 28.421875 
Q 5.328125 27.78125 4.6875 27.78125 
L 3.515625 27.78125 
Q 2.6875 27.78125 2.6875 28.71875 
L 2.6875 29 
Q 4.296875 34.96875 7.609375 39.578125 
Q 10.9375 44.1875 16.015625 44.1875 
Q 19.578125 44.1875 22.046875 41.84375 
Q 24.515625 39.5 24.515625 35.890625 
Q 24.515625 34.03125 23.6875 31.984375 
L 15.578125 10.5 
Q 14.203125 7.171875 14.203125 4.5 
Q 14.203125 1.515625 16.5 1.515625 
Q 20.40625 1.515625 23.015625 5.6875 
Q 25.640625 9.859375 26.703125 14.703125 
Q 26.90625 15.28125 27.484375 15.28125 
L 28.71875 15.28125 
Q 29.109375 15.28125 29.34375 15.015625 
Q 29.59375 14.75 29.59375 14.40625 
Q 29.59375 14.3125 29.5 14.109375 
Q 28.125 8.453125 24.734375 3.65625 
Q 21.34375 -1.125 16.3125 -1.125 
Q 12.796875 -1.125 10.296875 1.296875 
Q 7.8125 3.71875 7.8125 7.171875 
M 19.09375 60.59375 
Q 19.09375 62.703125 20.84375 64.40625 
Q 22.609375 66.109375 24.703125 66.109375 
Q 26.421875 66.109375 27.515625 65.0625 
Q 28.609375 64.015625 28.609375 62.40625 
Q 28.609375 60.15625 26.828125 58.46875 
Q 25.046875 56.78125 22.90625 56.78125 
Q 21.296875 56.78125 20.1875 57.875 
Q 19.09375 58.984375 19.09375 60.59375 
" id="Cmmi10-69"/>
      <path d="M 14.703125 13.921875 
Q 14.703125 10.25 16.140625 7.375 
Q 17.578125 4.5 20.3125 2.90625 
Q 23.046875 1.3125 26.703125 1.3125 
Q 31 1.3125 35.078125 3.0625 
Q 39.15625 4.828125 42.421875 7.953125 
Q 45.703125 11.078125 48.015625 15.078125 
Q 50.34375 19.09375 51.3125 23 
L 60.296875 59.078125 
Q 60.5 60.15625 60.5 60.59375 
Q 60.5 64.796875 52.78125 64.796875 
Q 51.8125 64.796875 51.8125 66.109375 
Q 52.15625 67.390625 52.34375 67.84375 
Q 52.546875 68.3125 53.515625 68.3125 
L 75.203125 68.3125 
Q 75.640625 68.3125 75.921875 67.875 
Q 76.21875 67.4375 76.21875 67 
Q 76.21875 66.9375 76.015625 66.234375 
Q 75.828125 65.53125 75.5625 65.15625 
Q 75.296875 64.796875 74.90625 64.796875 
Q 65.328125 64.796875 63.8125 58.6875 
L 54.78125 22.609375 
Q 53.65625 17.921875 51 13.5 
Q 48.34375 9.078125 44.453125 5.484375 
Q 40.578125 1.90625 35.90625 -0.140625 
Q 31.25 -2.203125 26.421875 -2.203125 
Q 20.90625 -2.203125 16.328125 0.21875 
Q 11.765625 2.640625 9.171875 6.984375 
Q 6.59375 11.328125 6.59375 17 
Q 6.59375 20.265625 7.328125 23 
L 17 61.8125 
Q 17.1875 62.796875 17.1875 63.1875 
Q 17.1875 64.265625 16.015625 64.40625 
Q 14.109375 64.796875 8.796875 64.796875 
Q 7.8125 64.796875 7.8125 66.109375 
Q 8.15625 67.390625 8.34375 67.84375 
Q 8.546875 68.3125 9.515625 68.3125 
L 36.375 68.3125 
Q 37.40625 68.3125 37.40625 67 
Q 37.359375 66.75 37.203125 66.15625 
Q 37.0625 65.578125 36.8125 65.1875 
Q 36.578125 64.796875 36.078125 64.796875 
Q 29.984375 64.796875 27.59375 64.109375 
Q 26.265625 63.625 25.6875 61.375 
L 16.015625 22.609375 
Q 14.703125 17.328125 14.703125 13.921875 
" id="Cmmi10-55"/>
     </defs>
     <g transform="translate(172.87 278.178125)scale(0.1 -0.1)">
      <use xlink:href="#Cmmi10-55"/>
      <use transform="translate(68.212890625 0.0)" xlink:href="#Cmmi10-3d"/>
      <use transform="translate(118.212890625 0.0)" xlink:href="#Cmmi10-6d"/>
      <use transform="translate(206.005859375 0.0)" xlink:href="#Cmmi10-69"/>
      <use transform="translate(240.4296875 0.0)" xlink:href="#Cmmi10-6e"/>
     </g>
    </g>
   </g>
   <g id="matplotlib.axis_2">
    <g id="ytick_1">
     <g id="line2d_29">
      <path clip-path="url(#pa8f7904747)" d="M 54 252 
L 321.84 252 
" style="fill:none;stroke:#000000;stroke-dasharray:1.000000,3.000000;stroke-dashoffset:0.0;stroke-width:0.5;"/>
     </g>
     <g id="line2d_30">
      <defs>
       <path d="M 0 0 
L 4 0 
" id="m86652cb7bf" style="stroke:#000000;stroke-width:0.5;"/>
      </defs>
      <g>
       <use style="stroke:#000000;stroke-width:0.5;" x="54.0" xlink:href="#m86652cb7bf" y="252.0"/>
      </g>
     </g>
     <g id="line2d_31">
      <defs>
       <path d="M 0 0 
L -4 0 
" id="mcdb4957367" style="stroke:#000000;stroke-width:0.5;"/>
      </defs>
      <g>
       <use style="stroke:#000000;stroke-width:0.5;" x="321.84" xlink:href="#mcdb4957367" y="252.0"/>
      </g>
     </g>
     <g id="text_11">
      <!-- 100 -->
      <g transform="translate(30.9125 254.759375)scale(0.1 -0.1)">
       <use xlink:href="#DejaVuSans-31"/>
       <use x="63.623046875" xlink:href="#DejaVuSans-30"/>
       <use x="127.24609375" xlink:href="#DejaVuSans-30"/>
      </g>
     </g>
    </g>
    <g id="ytick_2">
     <g id="line2d_32">
      <path clip-path="url(#pa8f7904747)" d="M 54 224.1 
L 321.84 224.1 
" style="fill:none;stroke:#000000;stroke-dasharray:1.000000,3.000000;stroke-dashoffset:0.0;stroke-width:0.5;"/>
     </g>
     <g id="line2d_33">
      <g>
       <use style="stroke:#000000;stroke-width:0.5;" x="54.0" xlink:href="#m86652cb7bf" y="224.1"/>
      </g>
     </g>
     <g id="line2d_34">
      <g>
       <use style="stroke:#000000;stroke-width:0.5;" x="321.84" xlink:href="#mcdb4957367" y="224.1"/>
      </g>
     </g>
     <g id="text_12">
      <!-- 150 -->
      <g transform="translate(30.9125 226.859375)scale(0.1 -0.1)">
       <use xlink:href="#DejaVuSans-31"/>
       <use x="63.623046875" xlink:href="#DejaVuSans-35"/>
       <use x="127.24609375" xlink:href="#DejaVuSans-30"/>
      </g>
     </g>
    </g>
    <g id="ytick_3">
     <g id="line2d_35">
      <path clip-path="url(#pa8f7904747)" d="M 54 196.2 
L 321.84 196.2 
" style="fill:none;stroke:#000000;stroke-dasharray:1.000000,3.000000;stroke-dashoffset:0.0;stroke-width:0.5;"/>
     </g>
     <g id="line2d_36">
      <g>
       <use style="stroke:#000000;stroke-width:0.5;" x="54.0" xlink:href="#m86652cb7bf" y="196.2"/>
      </g>
     </g>
     <g id="line2d_37">
      <g>
       <use style="stroke:#000000;stroke-width:0.5;" x="321.84" xlink:href="#mcdb4957367" y="196.2"/>
      </g>
     </g>
     <g id="text_13">
      <!-- 200 -->
      <g transform="translate(30.9125 198.959375)scale(0.1 -0.1)">
       <use xlink:href="#DejaVuSans-32"/>
       <use x="63.623046875" xlink:href="#DejaVuSans-30"/>
       <use x="127.24609375" xlink:href="#DejaVuSans-30"/>
      </g>
     </g>
    </g>
    <g id="ytick_4">
     <g id="line2d_38">
      <path clip-path="url(#pa8f7904747)" d="M 54 168.3 
L 321.84 168.3 
" style="fill:none;stroke:#000000;stroke-dasharray:1.000000,3.000000;stroke-dashoffset:0.0;stroke-width:0.5;"/>
     </g>
     <g id="line2d_39">
      <g>
       <use style="stroke:#000000;stroke-width:0.5;" x="54.0" xlink:href="#m86652cb7bf" y="168.3"/>
      </g>
     </g>
     <g id="line2d_40">
      <g>
       <use style="stroke:#000000;stroke-width:0.5;" x="321.84" xlink:href="#mcdb4957367" y="168.3"/>
      </g>
     </g>
     <g id="text_14">
      <!-- 250 -->
      <g transform="translate(30.9125 171.059375)scale(0.1 -0.1)">
       <use xlink:href="#DejaVuSans-32"/>
       <use x="63.623046875" xlink:href="#DejaVuSans-35"/>
       <use x="127.24609375" xlink:href="#DejaVuSans-30"/>
      </g>
     </g>
    </g>
    <g id="ytick_5">
     <g id="line2d_41">
      <path clip-path="url(#pa8f7904747)" d="M 54 140.4 
L 321.84 140.4 
" style="fill:none;stroke:#000000;stroke-dasharray:1.000000,3.000000;stroke-dashoffset:0.0;stroke-width:0.5;"/>
     </g>
     <g id="line2d_42">
      <g>
       <use style="stroke:#000000;stroke-width:0.5;" x="54.0" xlink:href="#m86652cb7bf" y="140.4"/>
      </g>
     </g>
     <g id="line2d_43">
      <g>
       <use style="stroke:#000000;stroke-width:0.5;" x="321.84" xlink:href="#mcdb4957367" y="140.4"/>
      </g>
     </g>
     <g id="text_15">
      <!-- 300 -->
      <g transform="translate(30.9125 143.159375)scale(0.1 -0.1)">
       <use xlink:href="#DejaVuSans-33"/>
       <use x="63.623046875" xlink:href="#DejaVuSans-30"/>
       <use x="127.24609375" xlink:href="#DejaVuSans-30"/>
      </g>
     </g>
    </g>
    <g id="ytick_6">
     <g id="line2d_44">
      <path clip-path="url(#pa8f7904747)" d="M 54 112.5 
L 321.84 112.5 
" style="fill:none;stroke:#000000;stroke-dasharray:1.000000,3.000000;stroke-dashoffset:0.0;stroke-width:0.5;"/>
     </g>
     <g id="line2d_45">
      <g>
       <use style="stroke:#000000;stroke-width:0.5;" x="54.0" xlink:href="#m86652cb7bf" y="112.5"/>
      </g>
     </g>
     <g id="line2d_46">
      <g>
       <use style="stroke:#000000;stroke-width:0.5;" x="321.84" xlink:href="#mcdb4957367" y="112.5"/>
      </g>
     </g>
     <g id="text_16">
      <!-- 350 -->
      <g transform="translate(30.9125 115.259375)scale(0.1 -0.1)">
       <use xlink:href="#DejaVuSans-33"/>
       <use x="63.623046875" xlink:href="#DejaVuSans-35"/>
       <use x="127.24609375" xlink:href="#DejaVuSans-30"/>
      </g>
     </g>
    </g>
    <g id="ytick_7">
     <g id="line2d_47">
      <path clip-path="url(#pa8f7904747)" d="M 54 84.6 
L 321.84 84.6 
" style="fill:none;stroke:#000000;stroke-dasharray:1.000000,3.000000;stroke-dashoffset:0.0;stroke-width:0.5;"/>
     </g>
     <g id="line2d_48">
      <g>
       <use style="stroke:#000000;stroke-width:0.5;" x="54.0" xlink:href="#m86652cb7bf" y="84.6"/>
      </g>
     </g>
     <g id="line2d_49">
      <g>
       <use style="stroke:#000000;stroke-width:0.5;" x="321.84" xlink:href="#mcdb4957367" y="84.6"/>
      </g>
     </g>
     <g id="text_17">
      <!-- 400 -->
      <g transform="translate(30.9125 87.359375)scale(0.1 -0.1)">
       <use xlink:href="#DejaVuSans-34"/>
       <use x="63.623046875" xlink:href="#DejaVuSans-30"/>
       <use x="127.24609375" xlink:href="#DejaVuSans-30"/>
      </g>
     </g>
    </g>
    <g id="ytick_8">
     <g id="line2d_50">
      <path clip-path="url(#pa8f7904747)" d="M 54 56.7 
L 321.84 56.7 
" style="fill:none;stroke:#000000;stroke-dasharray:1.000000,3.000000;stroke-dashoffset:0.0;stroke-width:0.5;"/>
     </g>
     <g id="line2d_51">
      <g>
       <use style="stroke:#000000;stroke-width:0.5;" x="54.0" xlink:href="#m86652cb7bf" y="56.7"/>
      </g>
     </g>
     <g id="line2d_52">
      <g>
       <use style="stroke:#000000;stroke-width:0.5;" x="321.84" xlink:href="#mcdb4957367" y="56.7"/>
      </g>
     </g>
     <g id="text_18">
      <!-- 450 -->
      <g transform="translate(30.9125 59.459375)scale(0.1 -0.1)">
       <use xlink:href="#DejaVuSans-34"/>
       <use x="63.623046875" xlink:href="#DejaVuSans-35"/>
       <use x="127.24609375" xlink:href="#DejaVuSans-30"/>
      </g>
     </g>
    </g>
    <g id="ytick_9">
     <g id="line2d_53">
      <path clip-path="url(#pa8f7904747)" d="M 54 28.8 
L 321.84 28.8 
" style="fill:none;stroke:#000000;stroke-dasharray:1.000000,3.000000;stroke-dashoffset:0.0;stroke-width:0.5;"/>
     </g>
     <g id="line2d_54">
      <g>
       <use style="stroke:#000000;stroke-width:0.5;" x="54.0" xlink:href="#m86652cb7bf" y="28.8"/>
      </g>
     </g>
     <g id="line2d_55">
      <g>
       <use style="stroke:#000000;stroke-width:0.5;" x="321.84" xlink:href="#mcdb4957367" y="28.8"/>
      </g>
     </g>
     <g id="text_19">
      <!-- 500 -->
      <g transform="translate(30.9125 31.559375)scale(0.1 -0.1)">
       <use xlink:href="#DejaVuSans-35"/>
       <use x="63.623046875" xlink:href="#DejaVuSans-30"/>
       <use x="127.24609375" xlink:href="#DejaVuSans-30"/>
      </g>
     </g>
    </g>
    <g id="text_20">
     <!-- $P_{me}$ in bar -->
     <defs>
      <path d="M 54.890625 33.015625 
L 54.890625 0 
L 45.90625 0 
L 45.90625 32.71875 
Q 45.90625 40.484375 42.875 44.328125 
Q 39.84375 48.1875 33.796875 48.1875 
Q 26.515625 48.1875 22.3125 43.546875 
Q 18.109375 38.921875 18.109375 30.90625 
L 18.109375 0 
L 9.078125 0 
L 9.078125 54.6875 
L 18.109375 54.6875 
L 18.109375 46.1875 
Q 21.34375 51.125 25.703125 53.5625 
Q 30.078125 56 35.796875 56 
Q 45.21875 56 50.046875 50.171875 
Q 54.890625 44.34375 54.890625 33.015625 
" id="DejaVuSans-6e"/>
      <path id="DejaVuSans-20"/>
      <path d="M 34.28125 27.484375 
Q 23.390625 27.484375 19.1875 25 
Q 14.984375 22.515625 14.984375 16.5 
Q 14.984375 11.71875 18.140625 8.90625 
Q 21.296875 6.109375 26.703125 6.109375 
Q 34.1875 6.109375 38.703125 11.40625 
Q 43.21875 16.703125 43.21875 25.484375 
L 43.21875 27.484375 
z
M 52.203125 31.203125 
L 52.203125 0 
L 43.21875 0 
L 43.21875 8.296875 
Q 40.140625 3.328125 35.546875 0.953125 
Q 30.953125 -1.421875 24.3125 -1.421875 
Q 15.921875 -1.421875 10.953125 3.296875 
Q 6 8.015625 6 15.921875 
Q 6 25.140625 12.171875 29.828125 
Q 18.359375 34.515625 30.609375 34.515625 
L 43.21875 34.515625 
L 43.21875 35.40625 
Q 43.21875 41.609375 39.140625 45 
Q 35.0625 48.390625 27.6875 48.390625 
Q 23 48.390625 18.546875 47.265625 
Q 14.109375 46.140625 10.015625 43.890625 
L 10.015625 52.203125 
Q 14.9375 54.109375 19.578125 55.046875 
Q 24.21875 56 28.609375 56 
Q 40.484375 56 46.34375 49.84375 
Q 52.203125 43.703125 52.203125 31.203125 
" id="DejaVuSans-61"/>
      <path d="M 9.421875 54.6875 
L 18.40625 54.6875 
L 18.40625 0 
L 9.421875 0 
z
M 9.421875 75.984375 
L 18.40625 75.984375 
L 18.40625 64.59375 
L 9.421875 64.59375 
z
" id="DejaVuSans-69"/>
      <path d="M 20.125 -1.125 
Q 15.328125 -1.125 11.734375 1.359375 
Q 8.15625 3.859375 6.265625 8.078125 
Q 4.390625 12.3125 4.390625 17 
Q 4.390625 24.125 7.984375 30.390625 
Q 11.578125 36.671875 17.71875 40.421875 
Q 23.875 44.1875 30.90625 44.1875 
Q 35.203125 44.1875 38.40625 41.96875 
Q 41.609375 39.75 41.609375 35.59375 
Q 41.609375 29.828125 37.015625 27.015625 
Q 32.421875 24.21875 26.65625 23.5625 
Q 20.90625 22.90625 13.921875 22.90625 
L 13.625 22.90625 
Q 12.015625 16.9375 12.015625 12.703125 
Q 12.015625 8.25 14.0625 4.875 
Q 16.109375 1.515625 20.3125 1.515625 
Q 26.265625 1.515625 31.75 4.25 
Q 37.25 6.984375 40.71875 11.8125 
Q 41.015625 12.109375 41.5 12.109375 
Q 42 12.109375 42.5 11.546875 
Q 43.015625 10.984375 43.015625 10.5 
Q 43.015625 10.109375 42.828125 9.90625 
Q 39.15625 4.78125 32.953125 1.828125 
Q 26.765625 -1.125 20.125 -1.125 
M 14.203125 25.484375 
Q 20.015625 25.484375 24.953125 26.015625 
Q 29.890625 26.5625 33.890625 28.734375 
Q 37.890625 30.90625 37.890625 35.5 
Q 37.890625 37.359375 36.859375 38.75 
Q 35.84375 40.140625 34.203125 40.875 
Q 32.5625 41.609375 30.8125 41.609375 
Q 26.5625 41.609375 23.171875 39.3125 
Q 19.78125 37.015625 17.578125 33.328125 
Q 15.375 29.640625 14.203125 25.484375 
" id="Cmmi10-65"/>
      <path d="M 48.6875 27.296875 
Q 48.6875 37.203125 44.609375 42.84375 
Q 40.53125 48.484375 33.40625 48.484375 
Q 26.265625 48.484375 22.1875 42.84375 
Q 18.109375 37.203125 18.109375 27.296875 
Q 18.109375 17.390625 22.1875 11.75 
Q 26.265625 6.109375 33.40625 6.109375 
Q 40.53125 6.109375 44.609375 11.75 
Q 48.6875 17.390625 48.6875 27.296875 
M 18.109375 46.390625 
Q 20.953125 51.265625 25.265625 53.625 
Q 29.59375 56 35.59375 56 
Q 45.5625 56 51.78125 48.09375 
Q 58.015625 40.1875 58.015625 27.296875 
Q 58.015625 14.40625 51.78125 6.484375 
Q 45.5625 -1.421875 35.59375 -1.421875 
Q 29.59375 -1.421875 25.265625 0.953125 
Q 20.953125 3.328125 18.109375 8.203125 
L 18.109375 0 
L 9.078125 0 
L 9.078125 75.984375 
L 18.109375 75.984375 
z
" id="DejaVuSans-62"/>
      <path d="M 4.890625 0 
Q 3.90625 0 3.90625 1.3125 
Q 3.953125 1.5625 4.09375 2.171875 
Q 4.25 2.78125 4.515625 3.140625 
Q 4.78125 3.515625 5.171875 3.515625 
Q 11.28125 3.515625 13.71875 4.203125 
Q 14.984375 4.640625 15.578125 6.890625 
L 29.296875 61.8125 
Q 29.5 62.796875 29.5 63.1875 
Q 29.5 64.265625 28.328125 64.40625 
Q 26.421875 64.796875 21.09375 64.796875 
Q 20.125 64.796875 20.125 66.109375 
Q 20.171875 66.359375 20.3125 66.96875 
Q 20.453125 67.578125 20.71875 67.9375 
Q 21 68.3125 21.390625 68.3125 
L 55.90625 68.3125 
Q 60.640625 68.3125 65.078125 66.625 
Q 69.53125 64.9375 72.359375 61.46875 
Q 75.203125 58.015625 75.203125 53.078125 
Q 75.203125 46.734375 70.734375 41.75 
Q 66.265625 36.765625 59.59375 33.984375 
Q 52.9375 31.203125 46.6875 31.203125 
L 30.421875 31.203125 
L 24.3125 6.5 
Q 24.125 5.515625 24.125 5.078125 
Q 24.125 4.6875 24.234375 4.421875 
Q 24.359375 4.15625 24.578125 4.078125 
Q 24.8125 4 25.296875 3.90625 
Q 27.203125 3.515625 32.515625 3.515625 
Q 33.5 3.515625 33.5 2.203125 
Q 33.15625 0.78125 32.953125 0.390625 
Q 32.765625 0 31.78125 0 
z
M 30.90625 34.1875 
L 44.921875 34.1875 
Q 54.640625 34.1875 59.71875 39.40625 
Q 62.3125 42 63.9375 46.875 
Q 65.578125 51.765625 65.578125 55.71875 
Q 65.578125 60.640625 61.8125 62.71875 
Q 58.0625 64.796875 52.484375 64.796875 
L 42.921875 64.796875 
Q 40.1875 64.796875 39.296875 64.328125 
Q 38.421875 63.875 37.703125 61.375 
z
" id="Cmmi10-50"/>
      <path d="M 41.109375 46.296875 
Q 39.59375 47.171875 37.8125 47.578125 
Q 36.03125 48 33.890625 48 
Q 26.265625 48 22.1875 43.046875 
Q 18.109375 38.09375 18.109375 28.8125 
L 18.109375 0 
L 9.078125 0 
L 9.078125 54.6875 
L 18.109375 54.6875 
L 18.109375 46.1875 
Q 20.953125 51.171875 25.484375 53.578125 
Q 30.03125 56 36.53125 56 
Q 37.453125 56 38.578125 55.875 
Q 39.703125 55.765625 41.0625 55.515625 
z
" id="DejaVuSans-72"/>
     </defs>
     <g transform="translate(23.8328125 164.7)rotate(-90.0)scale(0.1 -0.1)">
      <use transform="translate(0.0 0.015625)" xlink:href="#Cmmi10-50"/>
      <use transform="translate(64.208984375 -16.990624999999994)scale(0.7)" xlink:href="#Cmmi10-6d"/>
      <use transform="translate(125.6640625 -16.990624999999994)scale(0.7)" xlink:href="#Cmmi10-65"/>
      <use transform="translate(164.58046875 0.015625)" xlink:href="#DejaVuSans-20"/>
      <use transform="translate(196.367578125 0.015625)" xlink:href="#DejaVuSans-69"/>
      <use transform="translate(224.15078125 0.015625)" xlink:href="#DejaVuSans-6e"/>
      <use transform="translate(287.5296875 0.015625)" xlink:href="#DejaVuSans-20"/>
      <use transform="translate(319.316796875 0.015625)" xlink:href="#DejaVuSans-62"/>
      <use transform="translate(382.793359375 0.015625)" xlink:href="#DejaVuSans-61"/>
      <use transform="translate(444.07265625 0.015625)" xlink:href="#DejaVuSans-72"/>
     </g>
    </g>
   </g>
   <g id="text_21">
    <g clip-path="url(#pa8f7904747)">
     <!-- 50.0 -->
     <defs>
      <path d="M 10.6875 12.40625 
L 21 12.40625 
L 21 0 
L 10.6875 0 
z
" id="DejaVuSans-2e"/>
     </defs>
     <g style="fill:#0000ff;" transform="translate(179.891323691 102.839161024)rotate(-346.36931957643117)scale(0.07 -0.07)">
      <use xlink:href="#DejaVuSans-35"/>
      <use x="63.623046875" xlink:href="#DejaVuSans-30"/>
      <use x="127.24609375" xlink:href="#DejaVuSans-2e"/>
      <use x="159.033203125" xlink:href="#DejaVuSans-30"/>
     </g>
    </g>
   </g>
   <g id="text_22">
    <g clip-path="url(#pa8f7904747)">
     <!-- 100.0 -->
     <g style="fill:#0000ff;" transform="translate(269.878288459 163.652953857)rotate(-47.647840106555506)scale(0.07 -0.07)">
      <use xlink:href="#DejaVuSans-31"/>
      <use x="63.623046875" xlink:href="#DejaVuSans-30"/>
      <use x="127.24609375" xlink:href="#DejaVuSans-30"/>
      <use x="190.869140625" xlink:href="#DejaVuSans-2e"/>
      <use x="222.65625" xlink:href="#DejaVuSans-30"/>
     </g>
    </g>
   </g>
   <g id="text_23">
    <g clip-path="url(#pa8f7904747)">
     <!-- 150.0 -->
     <g style="fill:#0000ff;" transform="translate(235.987448122 199.409048877)rotate(-7.418112374530042)scale(0.07 -0.07)">
      <use xlink:href="#DejaVuSans-31"/>
      <use x="63.623046875" xlink:href="#DejaVuSans-35"/>
      <use x="127.24609375" xlink:href="#DejaVuSans-30"/>
      <use x="190.869140625" xlink:href="#DejaVuSans-2e"/>
      <use x="222.65625" xlink:href="#DejaVuSans-30"/>
     </g>
    </g>
   </g>
   <g id="text_24">
    <g clip-path="url(#pa8f7904747)">
     <!-- 150.0 -->
     <g style="fill:#0000ff;" transform="translate(257.369085836 76.2413924894)rotate(-325.3913099583557)scale(0.07 -0.07)">
      <use xlink:href="#DejaVuSans-31"/>
      <use x="63.623046875" xlink:href="#DejaVuSans-35"/>
      <use x="127.24609375" xlink:href="#DejaVuSans-30"/>
      <use x="190.869140625" xlink:href="#DejaVuSans-2e"/>
      <use x="222.65625" xlink:href="#DejaVuSans-30"/>
     </g>
    </g>
   </g>
   <g id="text_25">
    <g clip-path="url(#pa8f7904747)">
     <!-- 200.0 -->
     <g style="fill:#0000ff;" transform="translate(245.218751861 229.196779146)rotate(-7.8654775480631205)scale(0.07 -0.07)">
      <use xlink:href="#DejaVuSans-32"/>
      <use x="63.623046875" xlink:href="#DejaVuSans-30"/>
      <use x="127.24609375" xlink:href="#DejaVuSans-30"/>
      <use x="190.869140625" xlink:href="#DejaVuSans-2e"/>
      <use x="222.65625" xlink:href="#DejaVuSans-30"/>
     </g>
    </g>
   </g>
   <g id="text_26">
    <g clip-path="url(#pa8f7904747)">
     <!-- 250.0 -->
     <g style="fill:#0000ff;" transform="translate(312.263157452 246.128295357)rotate(-9.286175468561765)scale(0.07 -0.07)">
      <use xlink:href="#DejaVuSans-32"/>
      <use x="63.623046875" xlink:href="#DejaVuSans-35"/>
      <use x="127.24609375" xlink:href="#DejaVuSans-30"/>
      <use x="190.869140625" xlink:href="#DejaVuSans-2e"/>
      <use x="222.65625" xlink:href="#DejaVuSans-30"/>
     </g>
    </g>
   </g>
  </g>
  <g id="axes_2">
   <g id="patch_7">
    <path clip-path="url(#pa1a22c51d0)" d="M 338.58 252 
L 338.58 214.8 
L 338.58 66 
L 338.58 28.8 
L 349.74 28.8 
L 349.74 66 
L 349.74 214.8 
L 349.74 252 
z
" style="fill:#ffffff;stroke:#ffffff;stroke-linejoin:miter;stroke-width:0.01;"/>
   </g>
   <g id="QuadMesh_1">
    <path clip-path="url(#pa1a22c51d0)" d="M 338.58 252 
L 349.74 252 
L 349.74 214.8 
L 338.58 214.8 
L 338.58 252 
" style="fill:#15eaff;"/>
    <path clip-path="url(#pa1a22c51d0)" d="M 338.58 214.8 
L 349.74 214.8 
L 349.74 177.6 
L 338.58 177.6 
L 338.58 214.8 
" style="fill:#40bfff;"/>
    <path clip-path="url(#pa1a22c51d0)" d="M 338.58 177.6 
L 349.74 177.6 
L 349.74 140.4 
L 338.58 140.4 
L 338.58 177.6 
" style="fill:#6a95ff;"/>
    <path clip-path="url(#pa1a22c51d0)" d="M 338.58 140.4 
L 349.74 140.4 
L 349.74 103.2 
L 338.58 103.2 
L 338.58 140.4 
" style="fill:#956aff;"/>
    <path clip-path="url(#pa1a22c51d0)" d="M 338.58 103.2 
L 349.74 103.2 
L 349.74 66 
L 338.58 66 
L 338.58 103.2 
" style="fill:#c03fff;"/>
    <path clip-path="url(#pa1a22c51d0)" d="M 338.58 66 
L 349.74 66 
L 349.74 28.8 
L 338.58 28.8 
L 338.58 66 
" style="fill:#ea15ff;"/>
   </g>
   <g id="patch_8">
    <path d="M 338.58 252 
L 338.58 214.8 
L 338.58 66 
L 338.58 28.8 
L 349.74 28.8 
L 349.74 66 
L 349.74 214.8 
L 349.74 252 
L 338.58 252 
z
" style="fill:none;stroke:#000000;stroke-linejoin:miter;"/>
   </g>
   <g id="matplotlib.axis_3"/>
   <g id="matplotlib.axis_4">
    <g id="ytick_10">
     <g id="line2d_56">
      <g>
       <use style="stroke:#000000;stroke-width:0.5;" x="349.74" xlink:href="#mcdb4957367" y="252.0"/>
      </g>
     </g>
     <g id="text_27">
      <!-- 0 -->
      <g transform="translate(353.74 254.759375)scale(0.1 -0.1)">
       <use xlink:href="#DejaVuSans-30"/>
      </g>
     </g>
    </g>
    <g id="ytick_11">
     <g id="line2d_57">
      <g>
       <use style="stroke:#000000;stroke-width:0.5;" x="349.74" xlink:href="#mcdb4957367" y="214.8"/>
      </g>
     </g>
     <g id="text_28">
      <!-- 50 -->
      <g transform="translate(353.74 217.559375)scale(0.1 -0.1)">
       <use xlink:href="#DejaVuSans-35"/>
       <use x="63.623046875" xlink:href="#DejaVuSans-30"/>
      </g>
     </g>
    </g>
    <g id="ytick_12">
     <g id="line2d_58">
      <g>
       <use style="stroke:#000000;stroke-width:0.5;" x="349.74" xlink:href="#mcdb4957367" y="177.6"/>
      </g>
     </g>
     <g id="text_29">
      <!-- 100 -->
      <g transform="translate(353.74 180.359375)scale(0.1 -0.1)">
       <use xlink:href="#DejaVuSans-31"/>
       <use x="63.623046875" xlink:href="#DejaVuSans-30"/>
       <use x="127.24609375" xlink:href="#DejaVuSans-30"/>
      </g>
     </g>
    </g>
    <g id="ytick_13">
     <g id="line2d_59">
      <g>
       <use style="stroke:#000000;stroke-width:0.5;" x="349.74" xlink:href="#mcdb4957367" y="140.4"/>
      </g>
     </g>
     <g id="text_30">
      <!-- 150 -->
      <g transform="translate(353.74 143.159375)scale(0.1 -0.1)">
       <use xlink:href="#DejaVuSans-31"/>
       <use x="63.623046875" xlink:href="#DejaVuSans-35"/>
       <use x="127.24609375" xlink:href="#DejaVuSans-30"/>
      </g>
     </g>
    </g>
    <g id="ytick_14">
     <g id="line2d_60">
      <g>
       <use style="stroke:#000000;stroke-width:0.5;" x="349.74" xlink:href="#mcdb4957367" y="103.2"/>
      </g>
     </g>
     <g id="text_31">
      <!-- 200 -->
      <g transform="translate(353.74 105.959375)scale(0.1 -0.1)">
       <use xlink:href="#DejaVuSans-32"/>
       <use x="63.623046875" xlink:href="#DejaVuSans-30"/>
       <use x="127.24609375" xlink:href="#DejaVuSans-30"/>
      </g>
     </g>
    </g>
    <g id="ytick_15">
     <g id="line2d_61">
      <g>
       <use style="stroke:#000000;stroke-width:0.5;" x="349.74" xlink:href="#mcdb4957367" y="66.0"/>
      </g>
     </g>
     <g id="text_32">
      <!-- 250 -->
      <g transform="translate(353.74 68.759375)scale(0.1 -0.1)">
       <use xlink:href="#DejaVuSans-32"/>
       <use x="63.623046875" xlink:href="#DejaVuSans-35"/>
       <use x="127.24609375" xlink:href="#DejaVuSans-30"/>
      </g>
     </g>
    </g>
    <g id="ytick_16">
     <g id="line2d_62">
      <g>
       <use style="stroke:#000000;stroke-width:0.5;" x="349.74" xlink:href="#mcdb4957367" y="28.8"/>
      </g>
     </g>
     <g id="text_33">
      <!-- 300 -->
      <g transform="translate(353.74 31.559375)scale(0.1 -0.1)">
       <use xlink:href="#DejaVuSans-33"/>
       <use x="63.623046875" xlink:href="#DejaVuSans-30"/>
       <use x="127.24609375" xlink:href="#DejaVuSans-30"/>
      </g>
     </g>
    </g>
    <g id="text_34">
     <!-- Fuel in $g/KWh$ -->
     <defs>
      <path d="M 9.8125 72.90625 
L 51.703125 72.90625 
L 51.703125 64.59375 
L 19.671875 64.59375 
L 19.671875 43.109375 
L 48.578125 43.109375 
L 48.578125 34.8125 
L 19.671875 34.8125 
L 19.671875 0 
L 9.8125 0 
z
" id="DejaVuSans-46"/>
      <path d="M 4.6875 0 
Q 3.71875 0 3.71875 1.3125 
Q 3.765625 1.5625 3.90625 2.171875 
Q 4.046875 2.78125 4.3125 3.140625 
Q 4.59375 3.515625 4.984375 3.515625 
Q 11.078125 3.515625 13.484375 4.203125 
Q 14.796875 4.640625 15.375 6.890625 
L 29.109375 61.8125 
Q 29.296875 62.796875 29.296875 63.1875 
Q 29.296875 64.265625 28.078125 64.40625 
Q 26.21875 64.796875 20.90625 64.796875 
Q 19.921875 64.796875 19.921875 66.109375 
Q 20.265625 67.390625 20.453125 67.84375 
Q 20.65625 68.3125 21.578125 68.3125 
L 48.484375 68.3125 
Q 49.515625 68.3125 49.515625 67 
Q 49.46875 66.75 49.3125 66.15625 
Q 49.171875 65.578125 48.921875 65.1875 
Q 48.6875 64.796875 48.1875 64.796875 
Q 42.09375 64.796875 39.703125 64.109375 
Q 38.375 63.625 37.796875 61.375 
L 29.6875 29 
L 68.890625 59.28125 
Q 69 59.46875 70.140625 60.609375 
Q 71.296875 61.765625 71.296875 62.890625 
Q 71.296875 64.796875 67.921875 64.796875 
Q 66.890625 64.796875 66.890625 66.109375 
Q 67.09375 66.890625 67.203125 67.328125 
Q 67.328125 67.78125 67.640625 68.046875 
Q 67.96875 68.3125 68.609375 68.3125 
L 87.984375 68.3125 
Q 88.53125 68.3125 88.765625 67.921875 
Q 89.015625 67.53125 89.015625 67 
Q 88.96875 66.75 88.796875 66.109375 
Q 88.625 65.484375 88.359375 65.140625 
Q 88.09375 64.796875 87.59375 64.796875 
Q 80.28125 64.796875 71.578125 58.015625 
Q 71.53125 57.953125 71.4375 57.921875 
Q 71.34375 57.90625 71.234375 57.875 
Q 71.140625 57.859375 71.09375 57.8125 
L 50.484375 41.796875 
L 65.484375 6.6875 
Q 66.84375 4.5 68.40625 4 
Q 69.96875 3.515625 73.1875 3.515625 
Q 74.21875 3.515625 74.21875 2.203125 
Q 73.921875 1.03125 73.625 0.515625 
Q 73.34375 0 72.515625 0 
L 49.3125 0 
Q 48.390625 0 48.390625 1.3125 
Q 48.53125 2.34375 48.71875 2.921875 
Q 48.921875 3.515625 49.703125 3.515625 
Q 52.25 3.515625 54.03125 4.03125 
Q 55.8125 4.546875 55.8125 6.390625 
Q 55.8125 7.078125 55.71875 7.421875 
L 43.3125 36.28125 
L 28.71875 25 
L 24.125 6.5 
Q 23.875 5.28125 23.875 5.078125 
Q 23.875 4.046875 25.09375 3.90625 
Q 27 3.515625 32.328125 3.515625 
Q 33.296875 3.515625 33.296875 2.203125 
Q 32.953125 0.78125 32.75 0.390625 
Q 32.5625 0 31.59375 0 
z
" id="Cmmi10-4b"/>
      <path d="M 56.203125 29.59375 
L 56.203125 25.203125 
L 14.890625 25.203125 
Q 15.484375 15.921875 20.484375 11.0625 
Q 25.484375 6.203125 34.421875 6.203125 
Q 39.59375 6.203125 44.453125 7.46875 
Q 49.3125 8.734375 54.109375 11.28125 
L 54.109375 2.78125 
Q 49.265625 0.734375 44.1875 -0.34375 
Q 39.109375 -1.421875 33.890625 -1.421875 
Q 20.796875 -1.421875 13.15625 6.1875 
Q 5.515625 13.8125 5.515625 26.8125 
Q 5.515625 40.234375 12.765625 48.109375 
Q 20.015625 56 32.328125 56 
Q 43.359375 56 49.78125 48.890625 
Q 56.203125 41.796875 56.203125 29.59375 
M 47.21875 32.234375 
Q 47.125 39.59375 43.09375 43.984375 
Q 39.0625 48.390625 32.421875 48.390625 
Q 24.90625 48.390625 20.390625 44.140625 
Q 15.875 39.890625 15.1875 32.171875 
z
" id="DejaVuSans-65"/>
      <path d="M 1.421875 -14.3125 
Q 1.421875 -11.859375 3.09375 -10.03125 
Q 4.78125 -8.203125 7.171875 -8.203125 
Q 8.796875 -8.203125 9.890625 -9.203125 
Q 10.984375 -10.203125 10.984375 -11.8125 
Q 10.984375 -13.625 9.953125 -15.0625 
Q 8.9375 -16.5 7.328125 -17.09375 
Q 10.015625 -17.921875 15.71875 -17.921875 
Q 20.3125 -17.921875 24.125 -14.375 
Q 27.9375 -10.84375 29.109375 -6.203125 
L 31.984375 5.515625 
Q 26.5625 0 20.703125 0 
Q 16.40625 0 13.34375 2.1875 
Q 10.296875 4.390625 8.6875 8.046875 
Q 7.078125 11.71875 7.078125 15.828125 
Q 7.078125 20.40625 8.953125 25.4375 
Q 10.84375 30.46875 14.234375 34.765625 
Q 17.625 39.0625 22.015625 41.625 
Q 26.421875 44.1875 31.296875 44.1875 
Q 34.234375 44.1875 36.578125 42.578125 
Q 38.921875 40.96875 40.28125 38.28125 
Q 41.265625 42.1875 44.578125 42.1875 
Q 45.84375 42.1875 46.71875 41.421875 
Q 47.609375 40.671875 47.609375 39.40625 
Q 47.609375 39.109375 47.578125 38.953125 
Q 47.5625 38.8125 47.515625 38.625 
L 36.078125 -6.78125 
Q 35.296875 -9.90625 33.203125 -12.5 
Q 31.109375 -15.09375 28.265625 -16.828125 
Q 25.4375 -18.5625 22.0625 -19.53125 
Q 18.703125 -20.515625 15.578125 -20.515625 
Q 9.859375 -20.515625 5.640625 -19.40625 
Q 1.421875 -18.3125 1.421875 -14.3125 
M 20.90625 2.59375 
Q 27.296875 2.59375 33.5 11.375 
L 39.015625 33.203125 
Q 38.328125 36.671875 36.28125 39.140625 
Q 34.234375 41.609375 31.109375 41.609375 
Q 27.78125 41.609375 24.828125 38.890625 
Q 21.875 36.1875 19.921875 32.421875 
Q 18.0625 28.8125 16.328125 22.046875 
Q 14.59375 15.28125 14.59375 11.375 
Q 14.59375 7.953125 16.15625 5.265625 
Q 17.71875 2.59375 20.90625 2.59375 
" id="Cmmi10-67"/>
      <path d="M 9.421875 75.984375 
L 18.40625 75.984375 
L 18.40625 0 
L 9.421875 0 
z
" id="DejaVuSans-6c"/>
      <path d="M 8.5 21.578125 
L 8.5 54.6875 
L 17.484375 54.6875 
L 17.484375 21.921875 
Q 17.484375 14.15625 20.5 10.265625 
Q 23.53125 6.390625 29.59375 6.390625 
Q 36.859375 6.390625 41.078125 11.03125 
Q 45.3125 15.671875 45.3125 23.6875 
L 45.3125 54.6875 
L 54.296875 54.6875 
L 54.296875 0 
L 45.3125 0 
L 45.3125 8.40625 
Q 42.046875 3.421875 37.71875 1 
Q 33.40625 -1.421875 27.6875 -1.421875 
Q 18.265625 -1.421875 13.375 4.4375 
Q 8.5 10.296875 8.5 21.578125 
M 31.109375 56 
z
" id="DejaVuSans-75"/>
      <path d="M 17.828125 -1.125 
L 13.1875 62.59375 
Q 12.84375 64.0625 10.984375 64.421875 
Q 9.125 64.796875 6.390625 64.796875 
Q 5.421875 64.796875 5.421875 66.109375 
Q 5.765625 67.390625 5.953125 67.84375 
Q 6.15625 68.3125 7.078125 68.3125 
L 30.90625 68.3125 
Q 31.890625 68.3125 31.890625 67 
Q 31.5 64.796875 30.609375 64.796875 
Q 22.609375 64.796875 22.125 62.015625 
L 25.6875 11.53125 
L 50.6875 55.078125 
L 50.203125 62.59375 
Q 49.859375 64.0625 48 64.421875 
Q 46.140625 64.796875 43.40625 64.796875 
Q 42.390625 64.796875 42.390625 66.109375 
Q 42.71875 67.390625 42.90625 67.84375 
Q 43.109375 68.3125 44.09375 68.3125 
L 67.921875 68.3125 
Q 68.890625 68.3125 68.890625 67 
Q 68.84375 66.75 68.703125 66.15625 
Q 68.5625 65.578125 68.3125 65.1875 
Q 68.0625 64.796875 67.578125 64.796875 
Q 59.515625 64.796875 59.078125 62.015625 
L 59.078125 61.28125 
L 62.703125 11.53125 
L 89.890625 58.984375 
Q 90.484375 60.0625 90.484375 61.078125 
Q 90.484375 63.140625 88.46875 63.96875 
Q 86.46875 64.796875 83.984375 64.796875 
Q 83.015625 64.796875 83.015625 66.109375 
Q 83.203125 66.890625 83.328125 67.328125 
Q 83.453125 67.78125 83.765625 68.046875 
Q 84.078125 68.3125 84.71875 68.3125 
L 103.8125 68.3125 
Q 104.78125 68.3125 104.78125 67 
Q 104.734375 66.75 104.578125 66.140625 
Q 104.4375 65.53125 104.171875 65.15625 
Q 103.90625 64.796875 103.515625 64.796875 
Q 96.390625 64.796875 92.671875 58.296875 
Q 92.390625 58.015625 92.390625 58.015625 
L 58.5 -1.125 
Q 57.953125 -2.203125 56.78125 -2.203125 
L 56 -2.203125 
Q 54.78125 -2.203125 54.78125 -1.125 
L 50.984375 50.390625 
L 21.578125 -1.125 
Q 20.84375 -2.203125 19.828125 -2.203125 
L 19 -2.203125 
Q 17.828125 -2.203125 17.828125 -1.125 
" id="Cmmi10-57"/>
      <path d="M 5.328125 1.8125 
Q 5.328125 2.390625 5.421875 2.6875 
L 19.921875 60.5 
Q 20.3125 62.203125 20.40625 63.1875 
Q 20.40625 64.796875 13.921875 64.796875 
Q 12.890625 64.796875 12.890625 66.109375 
Q 12.9375 66.359375 13.109375 66.984375 
Q 13.28125 67.625 13.546875 67.96875 
Q 13.8125 68.3125 14.3125 68.3125 
L 27.78125 69.390625 
L 28.078125 69.390625 
Q 28.078125 69.28125 28.421875 69.109375 
Q 28.765625 68.953125 28.8125 68.890625 
Q 29 68.40625 29 68.109375 
L 21.1875 36.921875 
Q 27.34375 44.1875 35.796875 44.1875 
Q 39.3125 44.1875 41.875 42.96875 
Q 44.4375 41.75 45.875 39.28125 
Q 47.3125 36.8125 47.3125 33.40625 
Q 47.3125 29.296875 45.484375 23.484375 
Q 43.65625 17.671875 40.921875 10.5 
Q 39.5 7.234375 39.5 4.5 
Q 39.5 1.515625 41.796875 1.515625 
Q 45.703125 1.515625 48.3125 5.6875 
Q 50.921875 9.859375 52 14.703125 
Q 52.203125 15.28125 52.78125 15.28125 
L 54 15.28125 
Q 54.390625 15.28125 54.640625 15.015625 
Q 54.890625 14.75 54.890625 14.40625 
Q 54.890625 14.3125 54.78125 14.109375 
Q 53.90625 10.5 52.171875 7 
Q 50.4375 3.515625 47.796875 1.1875 
Q 45.171875 -1.125 41.609375 -1.125 
Q 38.09375 -1.125 35.59375 1.296875 
Q 33.109375 3.71875 33.109375 7.171875 
Q 33.109375 9.03125 33.890625 11.078125 
Q 36.71875 18.609375 38.59375 24.515625 
Q 40.484375 30.421875 40.484375 34.90625 
Q 40.484375 37.796875 39.359375 39.703125 
Q 38.234375 41.609375 35.59375 41.609375 
Q 30.21875 41.609375 26.21875 38.3125 
Q 22.21875 35.015625 19.28125 29.59375 
L 12.5 2.296875 
Q 12.109375 0.78125 10.984375 -0.171875 
Q 9.859375 -1.125 8.40625 -1.125 
Q 7.125 -1.125 6.21875 -0.265625 
Q 5.328125 0.59375 5.328125 1.8125 
" id="Cmmi10-68"/>
     </defs>
     <g transform="translate(385.4275 175.4)rotate(-90.0)scale(0.1 -0.1)">
      <use transform="translate(0.0 0.015625)" xlink:href="#DejaVuSans-46"/>
      <use transform="translate(57.51953125 0.015625)" xlink:href="#DejaVuSans-75"/>
      <use transform="translate(120.8984375 0.015625)" xlink:href="#DejaVuSans-65"/>
      <use transform="translate(182.421875 0.015625)" xlink:href="#DejaVuSans-6c"/>
      <use transform="translate(210.205078125 0.015625)" xlink:href="#DejaVuSans-20"/>
      <use transform="translate(241.9921875 0.015625)" xlink:href="#DejaVuSans-69"/>
      <use transform="translate(269.775390625 0.015625)" xlink:href="#DejaVuSans-6e"/>
      <use transform="translate(333.154296875 0.015625)" xlink:href="#DejaVuSans-20"/>
      <use transform="translate(364.94140625 0.015625)" xlink:href="#Cmmi10-67"/>
      <use transform="translate(412.646484375 0.015625)" xlink:href="#Cmmi10-3d"/>
      <use transform="translate(462.646484375 0.015625)" xlink:href="#Cmmi10-4b"/>
      <use transform="translate(547.55859375 0.015625)" xlink:href="#Cmmi10-57"/>
      <use transform="translate(641.943359375 0.015625)" xlink:href="#Cmmi10-68"/>
     </g>
    </g>
   </g>
  </g>
 </g>
 <defs>
  <clipPath id="pa1a22c51d0">
   <rect height="223.2" width="11.16" x="338.58" y="28.8"/>
  </clipPath>
  <clipPath id="pa8f7904747">
   <rect height="223.2" width="267.84" x="54.0" y="28.8"/>
  </clipPath>
 </defs>
</svg>
